# xmcd CD database file
#
# Track frame offsets:
#	150
#	35732
#	62341
#	83615
#	103884
#	137450
#	152978
#	173674
#	200621
#	224602
#	252784
#	272460
#
# Disc length: 3956 seconds
#
# Revision: 0
# Processed by: cddbd v1.5.2PL0 Copyright (c) Steve Scherf et al.
# Submitted via: CDex 2.06
#
DISCID=a40f720c
DTITLE=Miles Davis - The Best of Miles Davis
DYEAR=2018
DGENRE=Jazz
TTITLE0=I'll Remember April
TTITLE1=Oleo
TTITLE2=Solar
TTITLE3=Miles Ahead
TTITLE4=Just Squeeze Me
TTITLE5=When Lights Are Low
TTITLE6=In Your Own Sweet Way
TTITLE7=My Funny Valentine
TTITLE8=There Is No Greater Love
TTITLE9=Nature Boy
TTITLE10=When I Fall In Love
TTITLE11=Round Midnight
EXTD=YEAR: 2018
EXTT0=
EXTT1=
EXTT2=
EXTT3=
EXTT4=
EXTT5=
EXTT6=
EXTT7=
EXTT8=
EXTT9=
EXTT10=
EXTT11=
PLAYORDER=
